<?xml version="1.0" standalone="no"?>
<!DOCTYPE svg PUBLIC "-//W3C//DTD SVG 20010904//EN"
 "http://www.w3.org/TR/2001/REC-SVG-20010904/DTD/svg10.dtd">
<svg version="1.0" xmlns="http://www.w3.org/2000/svg"
 width="136.000000pt" height="136.000000pt" viewBox="0 0 136.000000 136.000000"
 preserveAspectRatio="xMidYMid meet">
<metadata>
Created by potrace 1.14, written by Peter Selinger 2001-2017
</metadata>
<g transform="translate(0.000000,136.000000) scale(0.100000,-0.100000)"
fill="#000000" stroke="none">
<path d="M545 1345 c-251 -54 -447 -241 -516 -490 -28 -105 -24 -286 10 -385
68 -199 232 -363 431 -431 89 -30 278 -38 370 -15 102 25 218 87 295 158 263
241 298 629 81 915 -150 198 -429 301 -671 248z m135 -816 l0 -170 -142 3
-143 3 -3 167 -2 167 112 3 c62 2 128 1 146 -1 l32 -3 0 -169z"/>
<path d="M410 535 l0 -155 130 0 130 0 0 155 0 155 -130 0 -130 0 0 -155z"/>
</g>
</svg>
