<svg xmlns="http://www.w3.org/2000/svg" width="33" height="33" viewBox="0 0 33 33"><g fill="none" fill-rule="evenodd"><path stroke="#000" stroke-linecap="round" stroke-linejoin="round" stroke-width=".866" d="M24.087 30.397L22.09 28.4l1.997-1.998"/><path stroke="#000" stroke-linecap="round" stroke-width=".866" d="M12.01 26.98h4.76a5.26 5.26 0 0 0 5.24-5.25v-5.48A5.26 5.26 0 0 0 16.77 11H5.9a5.26 5.26 0 0 0-5.25 5.25v5.48a5.26 5.26 0 0 0 5.25 5.25h2.44l2.97 5.38"/><path stroke="#000" stroke-linejoin="round" stroke-width=".866" d="M22.015 16.498H32.37V.648H19.449V11.74"/><path stroke="#000" stroke-linecap="round" stroke-linejoin="round" stroke-width=".866" d="M30.56 22.44c0 3.3-2.67 5.96-5.96 5.96h-2.5"/><path fill="#000" fill-rule="nonzero" d="M15.77 17.91a1.085 1.085 0 1 1 0 2.17 1.085 1.085 0 0 1 0-2.17zm-4.44 0a1.085 1.085 0 1 1 0 2.17 1.085 1.085 0 0 1 0-2.17zm-4.43 0a1.085 1.085 0 1 1 0 2.17 1.085 1.085 0 0 1 0-2.17z"/><path stroke="#000" stroke-linecap="round" stroke-linejoin="round" stroke-width=".866" d="M22.01 8.57h8.23m-8.23 4h8.23m-8.23-4h8.23m-8.23-4h8.23"/></g></svg>